<?xml version="1.0" encoding="UTF-8" standalone="no"?>
<!DOCTYPE svg PUBLIC "-//W3C//DTD SVG 1.1//EN"
 "http://www.w3.org/Graphics/SVG/1.1/DTD/svg11.dtd">
<!-- Generated by graphviz version 2.38.0 (20140413.2041)
 -->
<!-- Title: G Pages: 1 -->
<svg width="1190pt" height="98pt"
 viewBox="0.00 0.00 1190.00 98.00" xmlns="http://www.w3.org/2000/svg" xmlns:xlink="http://www.w3.org/1999/xlink">
<g id="graph0" class="graph" transform="scale(1 1) rotate(0) translate(4 94)">
<title>G</title>
<polygon fill="white" stroke="none" points="-4,4 -4,-94 1186,-94 1186,4 -4,4"/>
<!-- 3/3/g/0/0 -->
<g id="node1" class="node"><title>3/3/g/0/0</title>
<polygon fill="none" stroke="black" points="65,-63 0,-63 0,-27 65,-27 65,-63"/>
<text text-anchor="middle" x="32.5" y="-41.3" font-family="Times New Roman,serif" font-size="14.00">3/3/g/0/0</text>
</g>
<!-- 3/1/d/0/2 -->
<g id="node2" class="node"><title>3/1/d/0/2</title>
<polygon fill="none" stroke="black" points="167,-90 101,-90 101,-54 167,-54 167,-90"/>
<text text-anchor="middle" x="134" y="-68.3" font-family="Times New Roman,serif" font-size="14.00">3/1/d/0/2</text>
</g>
<!-- 3/3/g/0/0&#45;&gt;3/1/d/0/2 -->
<g id="edge1" class="edge"><title>3/3/g/0/0&#45;&gt;3/1/d/0/2</title>
<path fill="none" stroke="black" d="M65.256,-53.6172C73.4316,-55.8357 82.3565,-58.2575 90.9654,-60.5936"/>
<polygon fill="black" stroke="black" points="90.295,-64.0382 100.863,-63.2793 92.1283,-57.2825 90.295,-64.0382"/>
</g>
<!-- 2/2/d/1/1 -->
<g id="node14" class="node"><title>2/2/d/1/1</title>
<polygon fill="none" stroke="black" points="167,-36 101,-36 101,-0 167,-0 167,-36"/>
<text text-anchor="middle" x="134" y="-14.3" font-family="Times New Roman,serif" font-size="14.00">2/2/d/1/1</text>
</g>
<!-- 3/3/g/0/0&#45;&gt;2/2/d/1/1 -->
<g id="edge14" class="edge"><title>3/3/g/0/0&#45;&gt;2/2/d/1/1</title>
<path fill="none" stroke="black" d="M65.256,-36.3828C73.4316,-34.1643 82.3565,-31.7425 90.9654,-29.4064"/>
<polygon fill="black" stroke="black" points="92.1283,-32.7175 100.863,-26.7207 90.295,-25.9618 92.1283,-32.7175"/>
</g>
<!-- 3/2/g/0/1 -->
<g id="node3" class="node"><title>3/2/g/0/1</title>
<polygon fill="none" stroke="black" points="268,-63 203,-63 203,-27 268,-27 268,-63"/>
<text text-anchor="middle" x="235.5" y="-41.3" font-family="Times New Roman,serif" font-size="14.00">3/2/g/0/1</text>
</g>
<!-- 3/1/d/0/2&#45;&gt;3/2/g/0/1 -->
<g id="edge2" class="edge"><title>3/1/d/0/2&#45;&gt;3/2/g/0/1</title>
<path fill="none" stroke="black" d="M167.03,-63.3084C175.368,-61.0459 184.47,-58.5761 193.212,-56.2037"/>
<polygon fill="black" stroke="black" points="194.136,-59.5797 202.87,-53.583 192.303,-52.8241 194.136,-59.5797"/>
</g>
<!-- 3/0/d/0/3 -->
<g id="node4" class="node"><title>3/0/d/0/3</title>
<polygon fill="none" stroke="black" points="370,-63 304,-63 304,-27 370,-27 370,-63"/>
<text text-anchor="middle" x="337" y="-41.3" font-family="Times New Roman,serif" font-size="14.00">3/0/d/0/3</text>
</g>
<!-- 3/2/g/0/1&#45;&gt;3/0/d/0/3 -->
<g id="edge3" class="edge"><title>3/2/g/0/1&#45;&gt;3/0/d/0/3</title>
<path fill="none" stroke="black" d="M268.256,-45C276.343,-45 285.163,-45 293.685,-45"/>
<polygon fill="black" stroke="black" points="293.863,-48.5001 303.863,-45 293.863,-41.5001 293.863,-48.5001"/>
</g>
<!-- 3/1/g/0/2 -->
<g id="node5" class="node"><title>3/1/g/0/2</title>
<polygon fill="none" stroke="black" points="471,-63 406,-63 406,-27 471,-27 471,-63"/>
<text text-anchor="middle" x="438.5" y="-41.3" font-family="Times New Roman,serif" font-size="14.00">3/1/g/0/2</text>
</g>
<!-- 3/0/d/0/3&#45;&gt;3/1/g/0/2 -->
<g id="edge4" class="edge"><title>3/0/d/0/3&#45;&gt;3/1/g/0/2</title>
<path fill="none" stroke="black" d="M370.03,-45C378.189,-45 387.079,-45 395.648,-45"/>
<polygon fill="black" stroke="black" points="395.87,-48.5001 405.87,-45 395.87,-41.5001 395.87,-48.5001"/>
</g>
<!-- 1/1/d/2/2 -->
<g id="node6" class="node"><title>1/1/d/2/2</title>
<polygon fill="none" stroke="black" points="573,-63 507,-63 507,-27 573,-27 573,-63"/>
<text text-anchor="middle" x="540" y="-41.3" font-family="Times New Roman,serif" font-size="14.00">1/1/d/2/2</text>
</g>
<!-- 3/1/g/0/2&#45;&gt;1/1/d/2/2 -->
<g id="edge5" class="edge"><title>3/1/g/0/2&#45;&gt;1/1/d/2/2</title>
<path fill="none" stroke="black" d="M471.256,-45C479.343,-45 488.163,-45 496.685,-45"/>
<polygon fill="black" stroke="black" points="496.863,-48.5001 506.863,-45 496.863,-41.5001 496.863,-48.5001"/>
</g>
<!-- 2/2/g/1/1 -->
<g id="node7" class="node"><title>2/2/g/1/1</title>
<polygon fill="none" stroke="black" points="674,-63 609,-63 609,-27 674,-27 674,-63"/>
<text text-anchor="middle" x="641.5" y="-41.3" font-family="Times New Roman,serif" font-size="14.00">2/2/g/1/1</text>
</g>
<!-- 1/1/d/2/2&#45;&gt;2/2/g/1/1 -->
<g id="edge6" class="edge"><title>1/1/d/2/2&#45;&gt;2/2/g/1/1</title>
<path fill="none" stroke="black" d="M573.03,-45C581.189,-45 590.079,-45 598.648,-45"/>
<polygon fill="black" stroke="black" points="598.87,-48.5001 608.87,-45 598.87,-41.5001 598.87,-48.5001"/>
</g>
<!-- 0/2/d/3/1 -->
<g id="node8" class="node"><title>0/2/d/3/1</title>
<polygon fill="none" stroke="black" points="776,-63 710,-63 710,-27 776,-27 776,-63"/>
<text text-anchor="middle" x="743" y="-41.3" font-family="Times New Roman,serif" font-size="14.00">0/2/d/3/1</text>
</g>
<!-- 2/2/g/1/1&#45;&gt;0/2/d/3/1 -->
<g id="edge7" class="edge"><title>2/2/g/1/1&#45;&gt;0/2/d/3/1</title>
<path fill="none" stroke="black" d="M674.256,-45C682.343,-45 691.163,-45 699.685,-45"/>
<polygon fill="black" stroke="black" points="699.863,-48.5001 709.863,-45 699.863,-41.5001 699.863,-48.5001"/>
</g>
<!-- 0/3/g/3/0 -->
<g id="node9" class="node"><title>0/3/g/3/0</title>
<polygon fill="none" stroke="black" points="877,-63 812,-63 812,-27 877,-27 877,-63"/>
<text text-anchor="middle" x="844.5" y="-41.3" font-family="Times New Roman,serif" font-size="14.00">0/3/g/3/0</text>
</g>
<!-- 0/2/d/3/1&#45;&gt;0/3/g/3/0 -->
<g id="edge8" class="edge"><title>0/2/d/3/1&#45;&gt;0/3/g/3/0</title>
<path fill="none" stroke="black" d="M776.03,-45C784.189,-45 793.079,-45 801.648,-45"/>
<polygon fill="black" stroke="black" points="801.87,-48.5001 811.87,-45 801.87,-41.5001 801.87,-48.5001"/>
</g>
<!-- 0/1/d/3/2 -->
<g id="node10" class="node"><title>0/1/d/3/2</title>
<polygon fill="none" stroke="black" points="979,-63 913,-63 913,-27 979,-27 979,-63"/>
<text text-anchor="middle" x="946" y="-41.3" font-family="Times New Roman,serif" font-size="14.00">0/1/d/3/2</text>
</g>
<!-- 0/3/g/3/0&#45;&gt;0/1/d/3/2 -->
<g id="edge9" class="edge"><title>0/3/g/3/0&#45;&gt;0/1/d/3/2</title>
<path fill="none" stroke="black" d="M877.256,-45C885.343,-45 894.163,-45 902.685,-45"/>
<polygon fill="black" stroke="black" points="902.863,-48.5001 912.863,-45 902.863,-41.5001 902.863,-48.5001"/>
</g>
<!-- 0/2/g/3/1 -->
<g id="node11" class="node"><title>0/2/g/3/1</title>
<polygon fill="none" stroke="black" points="1080,-90 1015,-90 1015,-54 1080,-54 1080,-90"/>
<text text-anchor="middle" x="1047.5" y="-68.3" font-family="Times New Roman,serif" font-size="14.00">0/2/g/3/1</text>
</g>
<!-- 0/1/d/3/2&#45;&gt;0/2/g/3/1 -->
<g id="edge10" class="edge"><title>0/1/d/3/2&#45;&gt;0/2/g/3/1</title>
<path fill="none" stroke="black" d="M979.03,-53.6916C987.368,-55.9541 996.47,-58.4239 1005.21,-60.7963"/>
<polygon fill="black" stroke="black" points="1004.3,-64.1759 1014.87,-63.417 1006.14,-57.4203 1004.3,-64.1759"/>
</g>
<!-- 1/1/g/2/2 -->
<g id="node13" class="node"><title>1/1/g/2/2</title>
<polygon fill="none" stroke="black" points="1080,-36 1015,-36 1015,-0 1080,-0 1080,-36"/>
<text text-anchor="middle" x="1047.5" y="-14.3" font-family="Times New Roman,serif" font-size="14.00">1/1/g/2/2</text>
</g>
<!-- 0/1/d/3/2&#45;&gt;1/1/g/2/2 -->
<g id="edge12" class="edge"><title>0/1/d/3/2&#45;&gt;1/1/g/2/2</title>
<path fill="none" stroke="black" d="M979.03,-36.3084C987.368,-34.0459 996.47,-31.5761 1005.21,-29.2037"/>
<polygon fill="black" stroke="black" points="1006.14,-32.5797 1014.87,-26.583 1004.3,-25.8241 1006.14,-32.5797"/>
</g>
<!-- 0/0/d/3/3 -->
<g id="node12" class="node"><title>0/0/d/3/3</title>
<polygon fill="none" stroke="black" points="1182,-63 1116,-63 1116,-27 1182,-27 1182,-63"/>
<text text-anchor="middle" x="1149" y="-41.3" font-family="Times New Roman,serif" font-size="14.00">0/0/d/3/3</text>
</g>
<!-- 0/2/g/3/1&#45;&gt;0/0/d/3/3 -->
<g id="edge11" class="edge"><title>0/2/g/3/1&#45;&gt;0/0/d/3/3</title>
<path fill="none" stroke="black" d="M1080.26,-63.3828C1088.43,-61.1643 1097.36,-58.7425 1105.97,-56.4064"/>
<polygon fill="black" stroke="black" points="1107.13,-59.7175 1115.86,-53.7207 1105.3,-52.9618 1107.13,-59.7175"/>
</g>
<!-- 1/1/g/2/2&#45;&gt;0/0/d/3/3 -->
<g id="edge13" class="edge"><title>1/1/g/2/2&#45;&gt;0/0/d/3/3</title>
<path fill="none" stroke="black" d="M1080.26,-26.6172C1088.43,-28.8357 1097.36,-31.2575 1105.97,-33.5936"/>
<polygon fill="black" stroke="black" points="1105.3,-37.0382 1115.86,-36.2793 1107.13,-30.2825 1105.3,-37.0382"/>
</g>
<!-- 2/2/d/1/1&#45;&gt;3/2/g/0/1 -->
<g id="edge15" class="edge"><title>2/2/d/1/1&#45;&gt;3/2/g/0/1</title>
<path fill="none" stroke="black" d="M167.03,-26.6916C175.368,-28.9541 184.47,-31.4239 193.212,-33.7963"/>
<polygon fill="black" stroke="black" points="192.303,-37.1759 202.87,-36.417 194.136,-30.4203 192.303,-37.1759"/>
</g>
</g>
</svg>
